<svg version="1.1" id="Layer_1" xmlns="http://www.w3.org/2000/svg" xmlns:xlink="http://www.w3.org/1999/xlink" x="0px" y="0px"
	 width="100%" viewBox="0 0 1966 2175" enable-background="new 0 0 1966 2175" xml:space="preserve">
<path fill="#FFFFFF" opacity="1.000000" stroke="none" 
	d="
M1.999999,676.000000 
	C2.000000,451.419250 2.000000,226.838501 2.000000,2.000000 
	C502.056030,2.000000 1002.112122,2.000000 1502.874756,2.774907 
	C1463.210815,11.851690 1425.107666,26.241293 1389.092773,46.224258 
	C1347.367188,69.375870 1311.317261,99.617363 1279.429688,134.879425 
	C1264.411865,151.486389 1251.520874,169.683258 1244.313721,191.204468 
	C1238.419067,208.806656 1235.958130,226.807419 1241.654175,244.949890 
	C1251.456787,276.172729 1273.040894,294.438599 1304.983154,300.014343 
	C1334.482666,305.163696 1363.318726,300.556000 1391.296875,291.009125 
	C1440.533569,274.208344 1487.014526,251.385498 1531.957031,225.288116 
	C1573.633301,201.087402 1615.707764,177.562973 1657.147949,152.967285 
	C1699.485718,127.838814 1744.268677,108.988937 1791.928101,96.782738 
	C1826.405884,87.952446 1861.190552,84.022911 1896.581055,89.923286 
	C1910.404419,92.227936 1923.942871,95.677727 1935.604736,104.082909 
	C1951.863037,115.800720 1949.608887,128.978806 1941.654053,141.226959 
	C1940.763306,142.598373 1939.402588,143.667175 1938.246094,144.863022 
	C1928.616455,154.820190 1917.043823,162.357880 1904.579224,167.695740 
	C1879.268188,178.534882 1853.306030,187.843048 1827.809448,198.264511 
	C1815.842407,203.155838 1803.903931,208.423950 1792.736450,214.877548 
	C1781.680054,221.266968 1775.421875,231.618240 1773.779785,246.901642 
	C1778.644287,243.980637 1782.400757,242.566605 1785.012817,239.991745 
	C1791.612671,233.485855 1799.454590,229.397797 1808.051758,226.482971 
	C1822.849854,221.465790 1837.729980,216.683121 1852.463379,211.483856 
	C1877.214111,202.749527 1901.802124,193.780655 1924.668091,180.427216 
	C1943.395020,169.490997 1959.114868,156.239944 1968.000000,136.000000 
	C1968.000000,816.563782 1968.000000,1497.127563 1968.000000,2177.845703 
	C1312.868530,2177.845703 657.737061,2177.845703 2.000000,2177.845703 
	C2.000000,1678.610718 2.000000,1179.221313 2.931440,678.798218 
	C48.757107,677.764648 93.651337,677.764648 138.991486,677.764648 
	C139.323288,681.043579 139.708389,683.285095 139.753937,685.533447 
	C140.454697,720.130066 141.165482,754.726562 141.764267,789.325012 
	C142.489899,831.252563 143.108566,873.182068 143.780289,915.110596 
	C144.441345,956.373413 145.114487,997.636108 145.775757,1038.898926 
	C146.447678,1080.827515 147.109833,1122.756226 147.779465,1164.684814 
	C148.443771,1206.280884 149.111984,1247.876831 149.778610,1289.472900 
	C150.445221,1331.068237 151.114075,1372.663696 151.778122,1414.259033 
	C152.447495,1456.188354 153.108078,1498.117798 153.780014,1540.046997 
	C154.441269,1581.309204 155.185242,1622.570068 155.760193,1663.833374 
	C156.502289,1717.094116 157.294983,1770.355469 157.578873,1823.619263 
	C157.620483,1831.429077 159.787582,1835.351562 167.098679,1838.611938 
	C212.369156,1858.799438 257.396027,1879.533569 302.481171,1900.135864 
	C336.070618,1915.485107 369.600220,1930.965698 403.202454,1946.286987 
	C452.238037,1968.645264 501.330780,1990.877930 550.368652,2013.231079 
	C584.881042,2028.963013 619.316650,2044.863403 653.833557,2060.585449 
	C702.271912,2082.647949 750.775085,2104.568604 799.210266,2126.638184 
	C833.724548,2142.364990 868.165283,2158.253662 902.669067,2174.003662 
	C904.671204,2174.917236 906.946045,2175.233398 909.742676,2176.007080 
	C909.742676,2097.344482 909.742676,2019.475098 909.742676,1941.290771 
	C882.953125,1929.119263 856.382446,1916.929688 829.714966,1904.955566 
	C774.485413,1880.156494 719.197510,1855.487671 663.946533,1830.736450 
	C611.423950,1807.207397 558.916626,1783.644653 506.405304,1760.090698 
	C473.624237,1745.386841 440.886902,1730.584229 408.031464,1716.048584 
	C402.497772,1713.600586 400.110260,1710.522339 400.050293,1704.114868 
	C399.766968,1673.847412 398.745605,1643.587646 398.256958,1613.320923 
	C397.467133,1564.396729 396.910431,1515.468872 396.213867,1466.543213 
	C395.578888,1421.946045 394.866364,1377.349976 394.229187,1332.752808 
	C393.534912,1284.159180 392.905090,1235.564575 392.215485,1186.970947 
	C391.573212,1141.710449 390.876709,1096.450806 390.227173,1051.190552 
	C389.544098,1003.594543 388.893311,955.998108 388.219238,908.401978 
	C387.559418,861.807495 386.802338,815.214233 386.254120,768.618408 
	C385.928711,740.965210 385.903992,713.308350 385.803864,685.652893 
	C385.792419,682.489685 386.166687,679.324951 386.370483,676.025269 
	C416.540833,675.380981 445.462982,674.738525 474.386383,674.158997 
	C484.711365,673.952026 495.040741,673.956421 505.365021,673.725342 
	C507.501373,673.677551 509.623993,673.013062 513.173279,672.379150 
	C427.739227,529.155457 342.935059,386.987762 257.508026,243.775879 
	C248.280090,259.649109 239.849991,274.289734 231.288269,288.852936 
	C194.014938,352.253876 156.648819,415.600281 119.421524,479.028198 
	C84.721420,538.150208 50.205296,597.380249 15.458961,656.475037 
	C11.462760,663.271545 6.509504,669.505310 1.999999,676.000000 
M1778.329468,472.719879 
	C1778.330322,475.052765 1778.165894,477.399597 1778.360962,479.716156 
	C1779.194824,489.619354 1780.048828,499.265350 1787.403931,507.373474 
	C1791.523193,511.914673 1793.885864,518.117676 1796.717651,523.734375 
	C1798.661743,527.590332 1799.200195,531.712036 1796.981445,536.371887 
	C1794.905884,535.530457 1793.250000,535.176880 1791.977539,534.279480 
	C1788.999268,532.179016 1786.119385,529.917297 1783.353149,527.542114 
	C1776.978394,522.068237 1772.148193,521.783264 1765.640625,526.818787 
	C1763.541626,528.442871 1761.850830,530.758728 1759.549316,531.911682 
	C1757.116089,533.130615 1754.177490,533.340210 1751.459595,533.990723 
	C1750.910645,531.539673 1749.923584,529.085327 1749.942139,526.638550 
	C1749.958984,524.404297 1750.720337,522.000610 1751.760132,519.984314 
	C1754.194580,515.263428 1756.842651,510.635376 1759.679077,506.143219 
	C1763.875977,499.496216 1765.703857,492.433929 1765.764038,484.495941 
	C1766.266724,418.245331 1766.991699,351.996338 1767.690918,285.747314 
	C1767.768188,278.431641 1768.308960,271.115265 1768.186035,263.806732 
	C1768.152954,261.841309 1766.740845,258.508789 1765.480469,258.262024 
	C1763.282227,257.831665 1759.805298,258.564972 1758.497925,260.154388 
	C1756.292969,262.834778 1754.982910,266.451965 1753.969238,269.874420 
	C1750.768555,280.679688 1748.351440,291.734711 1744.787964,302.411713 
	C1730.155396,346.254608 1707.724731,386.180267 1682.471069,424.624969 
	C1665.657104,450.221375 1646.764771,474.248169 1626.775879,497.424988 
	C1622.551270,502.323364 1620.111572,507.654358 1619.448608,514.394226 
	C1618.398438,525.069763 1619.359253,535.543457 1620.993652,545.929993 
	C1624.889893,570.692505 1633.461182,594.137207 1642.593994,617.336792 
	C1660.703003,663.338745 1672.274658,710.843628 1676.357178,760.147705 
	C1677.340698,772.025940 1679.032227,783.865906 1679.521118,795.759521 
	C1680.077026,809.282166 1679.649658,822.845215 1679.649658,836.535461 
	C1675.858032,837.293213 1672.384521,837.987427 1668.390869,838.785583 
	C1668.390869,846.228516 1668.390869,853.151184 1668.390869,859.797607 
	C1665.442871,861.941833 1663.096313,863.756348 1660.643433,865.413025 
	C1651.475464,871.605408 1647.168823,879.390564 1647.391846,891.247070 
	C1648.281372,938.543823 1648.134399,985.860474 1648.324341,1033.169922 
	C1648.786011,1148.104858 1649.382202,1263.039307 1649.620605,1377.974731 
	C1649.841187,1484.295166 1649.671143,1590.616455 1649.646729,1696.937378 
	C1649.646118,1699.546753 1649.335083,1702.156128 1649.174072,1704.681152 
	C1481.216797,1781.633301 1313.687744,1858.389160 1147.000244,1934.759521 
	C1147.000244,2016.150879 1147.000244,2095.910156 1147.000244,2176.780029 
	C1396.466553,2058.375000 1644.953003,1940.434937 1893.670532,1822.385254 
	C1893.670532,1818.496338 1893.716797,1815.198486 1893.663208,1811.902344 
	C1893.230103,1785.290161 1892.524658,1758.679810 1892.381836,1732.066284 
	C1892.013550,1663.422241 1891.973267,1594.776733 1891.648926,1526.132446 
	C1891.301025,1452.525513 1890.579346,1378.920044 1890.375610,1305.312866 
	C1890.002808,1170.680908 1889.890991,1036.048462 1889.671143,901.416138 
	C1889.666260,898.416504 1889.504395,895.406006 1889.700195,892.419189 
	C1890.419189,881.448792 1887.195068,872.072144 1878.637817,864.901245 
	C1875.285767,862.092224 1874.010132,858.763794 1874.261475,854.413452 
	C1874.562744,849.197937 1874.332642,843.951782 1874.332642,838.701965 
	C1869.736694,838.181396 1866.261230,837.787720 1861.931030,837.297241 
	C1862.667847,827.439453 1863.052002,818.196350 1864.100708,809.029297 
	C1867.417236,780.034729 1870.706543,751.031921 1874.537842,722.102722 
	C1877.674316,698.420776 1881.657837,674.870300 1890.186523,652.352600 
	C1896.780029,634.944580 1903.429932,617.550049 1909.565186,599.978516 
	C1916.801025,579.254822 1922.395142,558.151001 1924.126343,536.080688 
	C1925.408447,519.735657 1921.758057,505.731720 1911.665039,492.280579 
	C1893.312500,467.822205 1875.731812,442.718536 1859.038086,417.096375 
	C1830.021729,372.560974 1807.056885,325.081024 1793.061401,273.550690 
	C1792.111816,270.054321 1790.610352,266.669861 1789.036133,263.391571 
	C1787.395996,259.976471 1785.060913,256.781555 1780.645630,257.932709 
	C1776.688110,258.964508 1776.398315,262.587067 1776.338623,266.024170 
	C1776.309692,267.690155 1776.275391,269.359100 1776.338623,271.023132 
	C1776.767212,282.297974 1777.440430,293.568329 1777.620972,304.846771 
	C1777.993896,328.160919 1778.221802,351.478790 1778.302002,374.795868 
	C1778.411987,406.791779 1778.329468,438.788300 1778.329468,472.719879 
M742.999756,1608.003174 
	C756.896179,1608.003174 770.792542,1608.003174 785.252197,1608.003174 
	C785.460205,1603.638916 785.842346,1600.382202 785.728943,1597.142700 
	C785.322632,1585.534424 784.424927,1573.935791 784.291077,1562.326782 
	C783.515442,1495.066895 782.830200,1427.805786 782.257202,1360.543945 
	C781.513977,1273.284302 780.910950,1186.023438 780.231079,1098.763184 
	C780.127197,1085.437012 779.894348,1072.111694 779.815002,1058.785400 
	C779.798950,1056.092041 780.206970,1053.396118 780.574402,1048.735962 
	C789.599243,1058.857544 797.197693,1067.185547 804.584473,1075.697266 
	C837.479248,1113.601562 870.243469,1151.619263 903.192200,1189.476562 
	C928.734680,1218.824219 954.570312,1247.916870 980.114868,1277.262695 
	C1018.746704,1321.643066 1057.236572,1366.147095 1095.790527,1410.595337 
	C1125.193848,1444.493896 1154.535522,1478.446289 1184.029175,1512.266235 
	C1210.255615,1542.339722 1236.767700,1572.165283 1262.836426,1602.373901 
	C1266.260132,1606.341064 1269.407715,1608.110840 1274.564941,1608.093628 
	C1321.224243,1607.938354 1367.884399,1608.014648 1414.544189,1607.961792 
	C1416.739624,1607.959351 1418.934570,1607.377686 1421.122559,1607.066895 
	C1421.122559,1346.300293 1421.122559,1086.170532 1421.122559,826.206665 
	C1411.644409,823.790955 1266.974854,823.964233 1258.936279,826.338257 
	C1258.936279,1013.668213 1258.936279,1201.102051 1258.936279,1389.259155 
	C1257.257690,1387.821289 1255.643555,1386.745972 1254.412109,1385.336426 
	C1240.633423,1369.566406 1226.869507,1353.783081 1213.187500,1337.929321 
	C1186.038818,1306.471069 1158.996826,1274.920532 1131.810791,1243.494507 
	C1107.881104,1215.832886 1083.750854,1188.344849 1059.826172,1160.679077 
	C1031.561523,1127.994873 1003.475891,1095.156006 975.212708,1062.470581 
	C951.940735,1035.557251 928.472961,1008.813477 905.183167,981.915649 
	C880.592407,953.515259 856.133179,925.001221 831.571838,896.575317 
	C813.316895,875.448059 794.754700,854.579590 776.849426,833.161072 
	C771.904663,827.246094 766.957581,824.356934 759.140930,824.404175 
	C713.149414,824.682373 667.155273,824.528992 621.162048,824.566711 
	C617.924133,824.569397 614.686462,824.938538 610.732971,825.181152 
	C610.732971,830.209961 610.606140,834.428101 610.776062,838.634216 
	C610.896057,841.601868 611.687866,844.550171 611.721741,847.512268 
	C612.440979,910.436340 613.090088,973.361206 613.763611,1036.285767 
	C614.422974,1097.883179 615.130066,1159.480225 615.750854,1221.078125 
	C616.458984,1291.338257 617.206116,1361.598511 617.723877,1431.860229 
	C618.079956,1480.179199 617.952209,1528.501953 618.329041,1576.820679 
	C618.408203,1586.968994 619.748108,1597.107544 620.563354,1608.003174 
	C661.134033,1608.003174 701.066956,1608.003174 742.999756,1608.003174 
z"/>
<path fill="#75B8BF" opacity="1.000000" stroke="none" 
	d="
M1.999999,676.500000 
	C6.509504,669.505310 11.462760,663.271545 15.458961,656.475037 
	C50.205296,597.380249 84.721420,538.150208 119.421524,479.028198 
	C156.648819,415.600281 194.014938,352.253876 231.288269,288.852936 
	C239.849991,274.289734 248.280090,259.649109 257.508026,243.775879 
	C342.935059,386.987762 427.739227,529.155457 513.173279,672.379150 
	C509.623993,673.013062 507.501373,673.677551 505.365021,673.725342 
	C495.040741,673.956421 484.711365,673.952026 474.386383,674.158997 
	C445.462982,674.738525 416.540833,675.380981 386.370483,676.025269 
	C386.166687,679.324951 385.792419,682.489685 385.803864,685.652893 
	C385.903992,713.308350 385.928711,740.965210 386.254120,768.618408 
	C386.802338,815.214233 387.559418,861.807495 388.219238,908.401978 
	C388.893311,955.998108 389.544098,1003.594543 390.227173,1051.190552 
	C390.876709,1096.450806 391.573212,1141.710449 392.215485,1186.970947 
	C392.905090,1235.564575 393.534912,1284.159180 394.229187,1332.752808 
	C394.866364,1377.349976 395.578888,1421.946045 396.213867,1466.543213 
	C396.910431,1515.468872 397.467133,1564.396729 398.256958,1613.320923 
	C398.745605,1643.587646 399.766968,1673.847412 400.050293,1704.114868 
	C400.110260,1710.522339 402.497772,1713.600586 408.031464,1716.048584 
	C440.886902,1730.584229 473.624237,1745.386841 506.405304,1760.090698 
	C558.916626,1783.644653 611.423950,1807.207397 663.946533,1830.736450 
	C719.197510,1855.487671 774.485413,1880.156494 829.714966,1904.955566 
	C856.382446,1916.929688 882.953125,1929.119263 909.742676,1941.290771 
	C909.742676,2019.475098 909.742676,2097.344482 909.742676,2176.007080 
	C906.946045,2175.233398 904.671204,2174.917236 902.669067,2174.003662 
	C868.165283,2158.253662 833.724548,2142.364990 799.210266,2126.638184 
	C750.775085,2104.568604 702.271912,2082.647949 653.833557,2060.585449 
	C619.316650,2044.863403 584.881042,2028.963013 550.368652,2013.231079 
	C501.330780,1990.877930 452.238037,1968.645264 403.202454,1946.286987 
	C369.600220,1930.965698 336.070618,1915.485107 302.481171,1900.135864 
	C257.396027,1879.533569 212.369156,1858.799438 167.098679,1838.611938 
	C159.787582,1835.351562 157.620483,1831.429077 157.578873,1823.619263 
	C157.294983,1770.355469 156.502289,1717.094116 155.760193,1663.833374 
	C155.185242,1622.570068 154.441269,1581.309204 153.780014,1540.046997 
	C153.108078,1498.117798 152.447495,1456.188354 151.778122,1414.259033 
	C151.114075,1372.663696 150.445221,1331.068237 149.778610,1289.472900 
	C149.111984,1247.876831 148.443771,1206.280884 147.779465,1164.684814 
	C147.109833,1122.756226 146.447678,1080.827515 145.775757,1038.898926 
	C145.114487,997.636108 144.441345,956.373413 143.780289,915.110596 
	C143.108566,873.182068 142.489899,831.252563 141.764267,789.325012 
	C141.165482,754.726562 140.454697,720.130066 139.753937,685.533447 
	C139.708389,683.285095 139.323288,681.043579 138.991486,677.764648 
	C93.651337,677.764648 48.757107,677.764648 2.931440,677.882324 
	C2.000000,678.000000 2.000000,677.000000 1.999999,676.500000 
z"/>
<path fill="#FEFEFE" opacity="1.000000" stroke="none" 
	d="
M1518.000000,2.000000 
	C1667.765259,2.000000 1817.530640,2.000000 1968.000000,2.000000 
	C1968.000000,38.038731 1968.000000,74.082047 1967.282959,110.922302 
	C1965.292847,108.695076 1964.397095,105.435417 1962.681519,102.687553 
	C1955.380859,90.993019 1944.725586,83.226128 1932.300903,77.722954 
	C1913.662842,69.467903 1893.730713,67.909012 1873.794800,67.363663 
	C1849.804077,66.707397 1826.049438,69.632553 1802.468872,74.057198 
	C1775.928467,79.037254 1750.065796,86.336693 1724.841187,95.965500 
	C1680.843140,112.760475 1640.129883,135.933578 1599.970825,160.180069 
	C1551.002808,189.745193 1501.868286,219.035080 1450.584106,244.466263 
	C1418.923096,260.166504 1386.119751,272.712799 1350.655273,276.809418 
	C1331.322266,279.042633 1312.108765,279.013855 1293.531128,272.217804 
	C1274.130127,265.120514 1263.941895,250.066696 1263.635010,229.626328 
	C1263.365356,211.667877 1269.870117,195.780685 1278.159302,180.517105 
	C1292.354370,154.378571 1313.195435,133.809555 1335.044678,114.165916 
	C1376.940674,76.499138 1424.115234,47.009434 1475.336182,23.845070 
	C1487.431641,18.374945 1499.766968,13.436925 1511.944336,8.144861 
	C1514.697021,6.948597 1519.016113,7.020648 1518.000000,2.000000 
z"/>
<path fill="#32385D" opacity="1.000000" stroke="none" 
	d="
M1517.125000,2.000000 
	C1519.016113,7.020648 1514.697021,6.948597 1511.944336,8.144861 
	C1499.766968,13.436925 1487.431641,18.374945 1475.336182,23.845070 
	C1424.115234,47.009434 1376.940674,76.499138 1335.044678,114.165916 
	C1313.195435,133.809555 1292.354370,154.378571 1278.159302,180.517105 
	C1269.870117,195.780685 1263.365356,211.667877 1263.635010,229.626328 
	C1263.941895,250.066696 1274.130127,265.120514 1293.531128,272.217804 
	C1312.108765,279.013855 1331.322266,279.042633 1350.655273,276.809418 
	C1386.119751,272.712799 1418.923096,260.166504 1450.584106,244.466263 
	C1501.868286,219.035080 1551.002808,189.745193 1599.970825,160.180069 
	C1640.129883,135.933578 1680.843140,112.760475 1724.841187,95.965500 
	C1750.065796,86.336693 1775.928467,79.037254 1802.468872,74.057198 
	C1826.049438,69.632553 1849.804077,66.707397 1873.794800,67.363663 
	C1893.730713,67.909012 1913.662842,69.467903 1932.300903,77.722954 
	C1944.725586,83.226128 1955.380859,90.993019 1962.681519,102.687553 
	C1964.397095,105.435417 1965.292847,108.695076 1967.282959,111.859619 
	C1968.000000,119.385818 1968.000000,126.771637 1968.000000,135.078735 
	C1959.114868,156.239944 1943.395020,169.490997 1924.668091,180.427216 
	C1901.802124,193.780655 1877.214111,202.749527 1852.463379,211.483856 
	C1837.729980,216.683121 1822.849854,221.465790 1808.051758,226.482971 
	C1799.454590,229.397797 1791.612671,233.485855 1785.012817,239.991745 
	C1782.400757,242.566605 1778.644287,243.980637 1773.779785,246.901642 
	C1775.421875,231.618240 1781.680054,221.266968 1792.736450,214.877548 
	C1803.903931,208.423950 1815.842407,203.155838 1827.809448,198.264511 
	C1853.306030,187.843048 1879.268188,178.534882 1904.579224,167.695740 
	C1917.043823,162.357880 1928.616455,154.820190 1938.246094,144.863022 
	C1939.402588,143.667175 1940.763306,142.598373 1941.654053,141.226959 
	C1949.608887,128.978806 1951.863037,115.800720 1935.604736,104.082909 
	C1923.942871,95.677727 1910.404419,92.227936 1896.581055,89.923286 
	C1861.190552,84.022911 1826.405884,87.952446 1791.928101,96.782738 
	C1744.268677,108.988937 1699.485718,127.838814 1657.147949,152.967285 
	C1615.707764,177.562973 1573.633301,201.087402 1531.957031,225.288116 
	C1487.014526,251.385498 1440.533569,274.208344 1391.296875,291.009125 
	C1363.318726,300.556000 1334.482666,305.163696 1304.983154,300.014343 
	C1273.040894,294.438599 1251.456787,276.172729 1241.654175,244.949890 
	C1235.958130,226.807419 1238.419067,208.806656 1244.313721,191.204468 
	C1251.520874,169.683258 1264.411865,151.486389 1279.429688,134.879425 
	C1311.317261,99.617363 1347.367188,69.375870 1389.092773,46.224258 
	C1425.107666,26.241293 1463.210815,11.851690 1503.790649,2.774907 
	C1508.083374,2.000000 1512.166626,2.000000 1517.125000,2.000000 
z"/>
<path fill="#2D3459" opacity="1.000000" stroke="none" 
	d="
M1778.329468,471.752228 
	C1778.329468,438.788300 1778.411987,406.791779 1778.302002,374.795868 
	C1778.221802,351.478790 1777.993896,328.160919 1777.620972,304.846771 
	C1777.440430,293.568329 1776.767212,282.297974 1776.338623,271.023132 
	C1776.275391,269.359100 1776.309692,267.690155 1776.338623,266.024170 
	C1776.398315,262.587067 1776.688110,258.964508 1780.645630,257.932709 
	C1785.060913,256.781555 1787.395996,259.976471 1789.036133,263.391571 
	C1790.610352,266.669861 1792.111816,270.054321 1793.061401,273.550690 
	C1807.056885,325.081024 1830.021729,372.560974 1859.038086,417.096375 
	C1875.731812,442.718536 1893.312500,467.822205 1911.665039,492.280579 
	C1921.758057,505.731720 1925.408447,519.735657 1924.126343,536.080688 
	C1922.395142,558.151001 1916.801025,579.254822 1909.565186,599.978516 
	C1903.429932,617.550049 1896.780029,634.944580 1890.186523,652.352600 
	C1881.657837,674.870300 1877.674316,698.420776 1874.537842,722.102722 
	C1870.706543,751.031921 1867.417236,780.034729 1864.100708,809.029297 
	C1863.052002,818.196350 1862.667847,827.439453 1861.931030,837.297241 
	C1866.261230,837.787720 1869.736694,838.181396 1874.332642,838.701965 
	C1874.332642,843.951782 1874.562744,849.197937 1874.261475,854.413452 
	C1874.010132,858.763794 1875.285767,862.092224 1878.637817,864.901245 
	C1887.195068,872.072144 1890.419189,881.448792 1889.700195,892.419189 
	C1889.504395,895.406006 1889.666260,898.416504 1889.671143,901.416138 
	C1889.890991,1036.048462 1890.002808,1170.680908 1890.375610,1305.312866 
	C1890.579346,1378.920044 1891.301025,1452.525513 1891.648926,1526.132446 
	C1891.973267,1594.776733 1892.013550,1663.422241 1892.381836,1732.066284 
	C1892.524658,1758.679810 1893.230103,1785.290161 1893.663208,1811.902344 
	C1893.716797,1815.198486 1893.670532,1818.496338 1893.670532,1822.385254 
	C1644.953003,1940.434937 1396.466553,2058.375000 1147.000244,2176.780029 
	C1147.000244,2095.910156 1147.000244,2016.150879 1147.000244,1934.759521 
	C1313.687744,1858.389160 1481.216797,1781.633301 1649.174072,1704.681152 
	C1649.335083,1702.156128 1649.646118,1699.546753 1649.646729,1696.937378 
	C1649.671143,1590.616455 1649.841187,1484.295166 1649.620605,1377.974731 
	C1649.382202,1263.039307 1648.786011,1148.104858 1648.324341,1033.169922 
	C1648.134399,985.860474 1648.281372,938.543823 1647.391846,891.247070 
	C1647.168823,879.390564 1651.475464,871.605408 1660.643433,865.413025 
	C1663.096313,863.756348 1665.442871,861.941833 1668.390869,859.797607 
	C1668.390869,853.151184 1668.390869,846.228516 1668.390869,838.785583 
	C1672.384521,837.987427 1675.858032,837.293213 1679.649658,836.535461 
	C1679.649658,822.845215 1680.077026,809.282166 1679.521118,795.759521 
	C1679.032227,783.865906 1677.340698,772.025940 1676.357178,760.147705 
	C1672.274658,710.843628 1660.703003,663.338745 1642.593994,617.336792 
	C1633.461182,594.137207 1624.889893,570.692505 1620.993652,545.929993 
	C1619.359253,535.543457 1618.398438,525.069763 1619.448608,514.394226 
	C1620.111572,507.654358 1622.551270,502.323364 1626.775879,497.424988 
	C1646.764771,474.248169 1665.657104,450.221375 1682.471069,424.624969 
	C1707.724731,386.180267 1730.155396,346.254608 1744.787964,302.411713 
	C1748.351440,291.734711 1750.768555,280.679688 1753.969238,269.874420 
	C1754.982910,266.451965 1756.292969,262.834778 1758.497925,260.154388 
	C1759.805298,258.564972 1763.282227,257.831665 1765.480469,258.262024 
	C1766.740845,258.508789 1768.152954,261.841309 1768.186035,263.806732 
	C1768.308960,271.115265 1767.768188,278.431641 1767.690918,285.747314 
	C1766.991699,351.996338 1766.266724,418.245331 1765.764038,484.495941 
	C1765.703857,492.433929 1763.875977,499.496216 1759.679077,506.143219 
	C1756.842651,510.635376 1754.194580,515.263428 1751.760132,519.984314 
	C1750.720337,522.000610 1749.958984,524.404297 1749.942139,526.638550 
	C1749.923584,529.085327 1750.910645,531.539673 1751.459595,533.990723 
	C1754.177490,533.340210 1757.116089,533.130615 1759.549316,531.911682 
	C1761.850830,530.758728 1763.541626,528.442871 1765.640625,526.818787 
	C1772.148193,521.783264 1776.978394,522.068237 1783.353149,527.542114 
	C1786.119385,529.917297 1788.999268,532.179016 1791.977539,534.279480 
	C1793.250000,535.176880 1794.905884,535.530457 1796.981445,536.371887 
	C1799.200195,531.712036 1798.661743,527.590332 1796.717651,523.734375 
	C1793.885864,518.117676 1791.523193,511.914673 1787.403931,507.373474 
	C1780.048828,499.265350 1779.194824,489.619354 1778.360962,479.716156 
	C1778.165894,477.399597 1778.330322,475.052765 1778.329468,471.752228 
z"/>
<path fill="#F2BE5D" opacity="1.000000" stroke="none" 
	d="
M741.999878,1608.003174 
	C701.066956,1608.003174 661.134033,1608.003174 620.563354,1608.003174 
	C619.748108,1597.107544 618.408203,1586.968994 618.329041,1576.820679 
	C617.952209,1528.501953 618.079956,1480.179199 617.723877,1431.860229 
	C617.206116,1361.598511 616.458984,1291.338257 615.750854,1221.078125 
	C615.130066,1159.480225 614.422974,1097.883179 613.763611,1036.285767 
	C613.090088,973.361206 612.440979,910.436340 611.721741,847.512268 
	C611.687866,844.550171 610.896057,841.601868 610.776062,838.634216 
	C610.606140,834.428101 610.732971,830.209961 610.732971,825.181152 
	C614.686462,824.938538 617.924133,824.569397 621.162048,824.566711 
	C667.155273,824.528992 713.149414,824.682373 759.140930,824.404175 
	C766.957581,824.356934 771.904663,827.246094 776.849426,833.161072 
	C794.754700,854.579590 813.316895,875.448059 831.571838,896.575317 
	C856.133179,925.001221 880.592407,953.515259 905.183167,981.915649 
	C928.472961,1008.813477 951.940735,1035.557251 975.212708,1062.470581 
	C1003.475891,1095.156006 1031.561523,1127.994873 1059.826172,1160.679077 
	C1083.750854,1188.344849 1107.881104,1215.832886 1131.810791,1243.494507 
	C1158.996826,1274.920532 1186.038818,1306.471069 1213.187500,1337.929321 
	C1226.869507,1353.783081 1240.633423,1369.566406 1254.412109,1385.336426 
	C1255.643555,1386.745972 1257.257690,1387.821289 1258.936279,1389.259155 
	C1258.936279,1201.102051 1258.936279,1013.668213 1258.936279,826.338257 
	C1266.974854,823.964233 1411.644409,823.790955 1421.122559,826.206665 
	C1421.122559,1086.170532 1421.122559,1346.300293 1421.122559,1607.066895 
	C1418.934570,1607.377686 1416.739624,1607.959351 1414.544189,1607.961792 
	C1367.884399,1608.014648 1321.224243,1607.938354 1274.564941,1608.093628 
	C1269.407715,1608.110840 1266.260132,1606.341064 1262.836426,1602.373901 
	C1236.767700,1572.165283 1210.255615,1542.339722 1184.029175,1512.266235 
	C1154.535522,1478.446289 1125.193848,1444.493896 1095.790527,1410.595337 
	C1057.236572,1366.147095 1018.746704,1321.643066 980.114868,1277.262695 
	C954.570312,1247.916870 928.734680,1218.824219 903.192200,1189.476562 
	C870.243469,1151.619263 837.479248,1113.601562 804.584473,1075.697266 
	C797.197693,1067.185547 789.599243,1058.857544 780.574402,1048.735962 
	C780.206970,1053.396118 779.798950,1056.092041 779.815002,1058.785400 
	C779.894348,1072.111694 780.127197,1085.437012 780.231079,1098.763184 
	C780.910950,1186.023438 781.513977,1273.284302 782.257202,1360.543945 
	C782.830200,1427.805786 783.515442,1495.066895 784.291077,1562.326782 
	C784.424927,1573.935791 785.322632,1585.534424 785.728943,1597.142700 
	C785.842346,1600.382202 785.460205,1603.638916 785.252197,1608.003174 
	C770.792542,1608.003174 756.896179,1608.003174 741.999878,1608.003174 
z"/>
</svg>